PathFileType	4	(X/Y/Z)	./resultDataOpenSim/trcMotMarkerGrf/sub09/qtm-01-01.trc
DataRate	CameraRate	NumFrames	NumMarkers	Units	OrigDataRate	OrigDataStartFrame	OrigNumFrames
250.000000	250.000000	10	24	m	250.000000	428	488
Frame#	Time	L.Toe.Tip			R.Toe.Tip			L.Ankle.Lat			R.Ankle.Lat			L.Ankle.Med			R.Ankle.Med			L.Heel			R.Heel			L.Knee.Lat			R.Knee.Lat			L.Knee.Med			R.Knee.Med			L.Thigh.Upper			R.Thigh.Upper			L.ASIS			R.ASIS			V.Sacral			L.Acromium			R.Acromium			C7			L.Elbow			R.Elbow			L.Wrist.Lat			R.Wrist.Lat
		X1	Y1	Z1	X2	Y2	Z2	X3	Y3	Z3	X4	Y4	Z4	X5	Y5	Z5	X6	Y6	Z6	X7	Y7	Z7	X8	Y8	Z8	X9	Y9	Z9	X10	Y10	Z10	X11	Y11	Z11	X12	Y12	Z12	X13	Y13	Z13	X14	Y14	Z14	X15	Y15	Z15	X16	Y16	Z16	X17	Y17	Z17	X18	Y18	Z18	X19	Y19	Z19	X20	Y20	Z20	X21	Y21	Z21	X22	Y22	Z22	X23	Y23	Z23	X24	Y24	Z24

428	1.708	1.7309891	0.12014133	-0.022692284	1.0187402	0.039883767	0.12196559	1.5786537	0.087295395	-0.043521806	0.88481009	0.090336956	0.16128639	1.6048068	0.11552225	0.047935912	0.90502751	0.12645415	0.071819671	1.5367013	0.024389529	0.013085387	0.81031026	0.092419604	0.11304236	1.4529295	0.48813172	-0.075030587	1.1359817	0.47702805	0.21980158	1.468329	0.48646876	0.048423344	1.1241571	0.47061131	0.093971197	1.2478134	0.85037685	-0.10768945	1.2002327	0.87782845	0.26272842	1.3179329	0.9437741	-0.045162833	1.3054169	0.95786202	0.19621785	1.1418708	0.99622891	0.057908021	1.2772702	1.3955676	-0.11384742	1.2659269	1.4190078	0.21741459	1.2035709	1.4558958	0.049870688	1.1302124	1.056284	-0.16214786	1.1623454	1.0633064	0.32722262	1.2501703	0.82616569	-0.21476741	1.3770205	0.88971237	0.30769511
429	1.712	1.7331019	0.11605222	-0.021993523	1.0190502	0.040040071	0.12209356	1.5805767	0.084899719	-0.043483431	0.88598734	0.09247125	0.16164376	1.6065279	0.11294919	0.048051058	0.90696386	0.12835171	0.072205225	1.537599	0.022635958	0.012793534	0.81171319	0.095654072	0.11318668	1.458709	0.48720936	-0.075487229	1.1426147	0.47633995	0.22026252	1.4742606	0.48578909	0.047830424	1.1300477	0.46965741	0.094214536	1.2546702	0.85007304	-0.10833388	1.2061647	0.87709953	0.26193372	1.3246887	0.94341689	-0.045526738	1.3115339	0.95719278	0.19583247	1.1482465	0.99551133	0.057116551	1.2825887	1.3951177	-0.11455074	1.2710726	1.4184804	0.21673465	1.2087375	1.4552246	0.049167307	1.1360972	1.0556098	-0.16256944	1.1673093	1.0628891	0.32616392	1.2561725	0.82557258	-0.21527003	1.3811017	0.88816296	0.30743996
430	1.716	1.7351666	0.11173091	-0.02128752	1.0193314	0.040178967	0.1221621	1.5824544	0.082511614	-0.043353274	0.88712281	0.094637369	0.16203768	1.6081839	0.11041981	0.048292661	0.90901852	0.13032562	0.072620824	1.538255	0.021190327	0.012566885	0.8132403	0.099013222	0.11333994	1.4643521	0.48616226	-0.075953176	1.1500486	0.47577527	0.22069927	1.4799441	0.48489953	0.047262025	1.1357872	0.46879208	0.094328862	1.261584	0.84977958	-0.10902086	1.2120452	0.87638248	0.2611231	1.3315001	0.94308178	-0.045886599	1.3177252	0.95654714	0.19545494	1.1546878	0.9948165	0.056275082	1.2879316	1.3946969	-0.11525553	1.2761961	1.4179845	0.21604633	1.2138806	1.4545641	0.048433386	1.1419483	1.0549793	-0.16300715	1.1721856	1.0625147	0.32508029	1.2622033	0.82503198	-0.21576086	1.3851359	0.88661902	0.30720174
431	1.72	1.7373857	0.10688867	-0.020704988	1.0195773	0.040290738	0.12220903	1.5844115	0.080309421	-0.043073901	0.88829546	0.096851651	0.16248182	1.6100229	0.10814225	0.048670117	0.91118919	0.13237826	0.073075554	1.538807	0.020320722	0.012571529	0.8149014	0.10249637	0.11349602	1.4698196	0.48499549	-0.076455377	1.1572332	0.47516619	0.22098241	1.4853478	0.48377808	0.04672026	1.1417406	0.46790443	0.094506788	1.2685645	0.84949505	-0.10971024	1.2179609	0.87567266	0.26026662	1.3383195	0.94276881	-0.046236898	1.3240024	0.95591885	0.19508283	1.1611675	0.99415427	0.055406798	1.2933023	1.3943048	-0.11596721	1.2813083	1.4175174	0.21534227	1.2190003	1.4539367	0.047670091	1.1477736	1.0543991	-0.1634753	1.1770158	1.0621837	0.32397605	1.2682628	0.82454005	-0.2162437	1.3891268	0.8850805	0.30697339
432	1.724	1.7400094	0.1013492	-0.020342856	1.0198249	0.040393494	0.12229601	1.5865824	0.078525543	-0.042662801	0.88966079	0.09917825	0.16299003	1.6123395	0.10629094	0.049104789	0.91348695	0.13450133	0.073575886	1.5394619	0.020230519	0.012919696	0.81670786	0.10610264	0.11365559	1.4750781	0.48373837	-0.077009313	1.163638	0.47442852	0.22109074	1.4904463	0.48241666	0.046228186	1.1481396	0.4669145	0.094838578	1.2756258	0.84921585	-0.11037846	1.2239276	0.87496705	0.25934583	1.3450932	0.94249863	-0.046571075	1.3303695	0.95530155	0.19469719	1.1676484	0.99356771	0.054523264	1.2987052	1.39394	-0.11669262	1.2864192	1.4170812	0.21462281	1.2241148	1.4533799	0.04688616	1.1535992	1.0538668	-0.16397532	1.1818841	1.0618924	0.3228584	1.2743537	0.82408953	-0.21672542	1.3930765	0.88354745	0.3067506
433	1.728	1.7431928	0.095322927	-0.020186346	1.0201228	0.040529529	0.1224358	1.5890438	0.077303504	-0.042237182	0.89128628	0.10167414	0.16355907	1.6152881	0.10487887	0.049469722	0.91593183	0.13666753	0.074126376	1.5403728	0.020909445	0.013506878	0.81867254	0.10983509	0.11383666	1.4801483	0.48246962	-0.077605796	1.1696678	0.47364669	0.2211623	1.4952436	0.48084989	0.045819016	1.154995	0.4658026	0.095294066	1.2827613	0.84894408	-0.11105327	1.2299471	0.87425478	0.25836459	1.351776	0.94229841	-0.046891566	1.336827	0.95469268	0.19427897	1.1741019	0.99311055	0.05363628	1.3041442	1.3936034	-0.11743066	1.2915339	1.4166826	0.21389712	1.2292443	1.4529141	0.04609464	1.1594486	1.0533653	-0.16450112	1.186838	1.0616253	0.32172517	1.2804803	0.82366981	-0.2172102	1.3969877	0.88202255	0.30653777
434	1.732	1.7468452	0.089364315	-0.020119215	1.0204927	0.040725187	0.12259387	1.5917898	0.076581435	-0.041961031	0.89312783	0.10436197	0.16417635	1.6187193	0.10376143	0.049672062	0.91853773	0.13885032	0.074737488	1.541555	0.022117557	0.01398252	0.82081119	0.11370384	0.11407246	1.4851486	0.48133141	-0.078226043	1.1760264	0.4729573	0.22139268	1.4997976	0.47918533	0.045502502	1.1621288	0.46460553	0.095790633	1.2899506	0.84869718	-0.11178506	1.2360454	0.87352666	0.25734699	1.3583407	0.94218099	-0.047216171	1.3433551	0.9540908	0.1938244	1.1805053	0.99280723	0.052759122	1.3096207	1.3932998	-0.11817918	1.296653	1.4163306	0.21317685	1.2344055	1.4525353	0.04530307	1.1653341	1.0528764	-0.16505114	1.1918638	1.0613704	0.32056261	1.286645	0.82327361	-0.21769673	1.4008583	0.88050754	0.30633682
435	1.736	1.7506202	0.083996978	-0.020027489	1.0209285	0.040966272	0.12276226	1.5947535	0.076136915	-0.04195333	0.89513934	0.10724182	0.164836	1.6222404	0.1027686	0.049693912	0.92130836	0.14104439	0.075424476	1.5428993	0.023557156	0.013911724	0.82313989	0.11771879	0.11439912	1.4902869	0.4805149	-0.078882887	1.182943	0.4723814	0.22182772	1.5041957	0.47761097	0.045242792	1.1693287	0.46338559	0.096266892	1.2971771	0.84850812	-0.11261071	1.2422517	0.87278417	0.25632048	1.3647775	0.94214374	-0.047575938	1.3499124	0.95349719	0.19334229	1.1868332	0.9926422	0.051887206	1.3151325	1.3930348	-0.11894293	1.3017696	1.4160349	0.21246962	1.2396127	1.4522375	0.044509166	1.1712569	1.0523969	-0.16563833	1.1969259	1.0611411	0.31936069	1.2928413	0.82290749	-0.21817729	1.4046845	0.87900116	0.30614494
436	1.74	1.754111	0.07939024	-0.01987332	1.021412	0.041215667	0.12299278	1.5978136	0.075758522	-0.042220662	0.89731764	0.11030298	0.16553949	1.6254789	0.10181817	0.049570361	0.92424079	0.14327057	0.076197955	1.5442497	0.025035682	0.013061395	0.8256704	0.12188071	0.11484086	1.4957662	0.48019879	-0.079629434	1.1900105	0.47180311	0.22232792	1.5084867	0.47635932	0.044969596	1.176522	0.46217723	0.096714631	1.3044248	0.84842326	-0.11354663	1.2485771	0.87203155	0.25530443	1.3710895	0.94218787	-0.048002025	1.3564629	0.95291819	0.1928382	1.1930733	0.99258048	0.051013081	1.3206739	1.3928149	-0.11972611	1.3068715	1.4158065	0.21177676	1.2448694	1.4520237	0.043698933	1.1772087	1.0519417	-0.16627305	1.2019946	1.0609653	0.31812411	1.2990585	0.82258638	-0.21864258	1.4084705	0.877504	0.30596198
437	1.744	1.7570905	0.075334028	-0.01966745	1.0219254	0.041445744	0.12334204	1.6007971	0.075364634	-0.042667036	0.89967798	0.1135302	0.16628849	1.6282941	0.10092203	0.049345685	0.9273254	0.14556961	0.077057567	1.54549	0.026454856	0.011639642	0.8284135	0.12618342	0.11539864	1.5016577	0.48045336	-0.080489398	1.1967147	0.47111412	0.22276976	1.5126567	0.4756336	0.044600252	1.1837822	0.46096274	0.0971578	1.311652	0.84849975	-0.11459263	1.2550266	0.87126657	0.25431174	1.3772885	0.94232998	-0.048509066	1.3629894	0.95236331	0.1923017	1.1992395	0.99259392	0.050157099	1.3262402	1.3926488	-0.12052379	1.3119493	1.4156555	0.21109162	1.2501589	1.4518873	0.042848519	1.1831811	1.0515344	-0.16694666	1.2070539	1.0608562	0.31687009	1.3052951	0.82231619	-0.21908966	1.4122187	0.87602311	0.30578799
